<svg id="Шар_1" data-name="Шар 1" xmlns="http://www.w3.org/2000/svg" viewBox="0 0 351.82 350.13"><defs><style>.cls-1{fill:#1d1d1b;stroke:#1d1d1b;stroke-miterlimit:10;}.cls-2{fill:#fff;}</style></defs><path class="cls-1" d="M268.83-459.57,94-756.06-80.07-458.2a4.75,4.75,0,0,1,.47,1l348.46.43a2.61,2.61,0,0,1,.23-.24A5.66,5.66,0,0,1,268.83-459.57Z" transform="translate(81.15 757.24)"/><path class="cls-2" d="M94.14-757.24l93.1,158.46-.71.7c-1.89-1-3.81-1.93-5.67-3L50.07-675.25c-1.88-1.07-3.14-1.9-1.62-4.47Q70.83-717.53,93-755.47C93.26-755.89,93.54-756.3,94.14-757.24Z" transform="translate(81.15 757.24)"/><path class="cls-2" d="M85.79-457.26c1-.6,2-1.23,3-1.8q66.3-37.65,132.57-75.34c2.58-1.47,3.77-1,5.15,1.38q21.51,36.81,43.14,73.55c1.69,2.89,1.51,3.16-1.91,3.26-2.08.07-4.16,0-6.25,0H90.2c-1.4,0-2.8-.12-4.21-.18Z" transform="translate(81.15 757.24)"/><path class="cls-2" d="M9.67-610.5c.07,1.17.2,2.34.2,3.51q0,73.18.06,146.37c0,2.95-.78,4.08-3.91,4.07-27.93-.11-55.86-.06-83.79-.08-4,0-4.14-.23-2-3.83q18.6-31.68,37.27-63.34,24.59-41.82,49.15-83.65c.67-1.12,1.37-2.23,2.05-3.35Z" transform="translate(81.15 757.24)"/><path class="cls-2" d="M112.17-527.95c-6.42-7.31-12.2-13.78-17.86-20.36-2.48-2.87-4.75-5.92-7-9a27.59,27.59,0,0,0-15.73-10.13c-4.39-1.12-8.76-2.28-13.12-3.45a5.44,5.44,0,0,1-2.83-1.63c7.29.38,14.58.81,21.87,1.14,9.82.45,19.55.09,27-7.58,8.84-9.13,6.41-23.45-4.65-29.72-7.27-4.12-15.21-5.06-23.29-5.73-14.34-1.18-28.67-2.46-43-3.69l0-1H56.21c10.89,0,21.79-.07,32.68.05a68.89,68.89,0,0,1,25.78,5c8.57,3.53,13,10.2,13.79,19.18s-2.08,16.87-10.21,21.66c-3.94,2.32-8.48,3.66-12.78,5.34a37.33,37.33,0,0,1-4.29,1.18q14.25,18.15,28.35,36.11c6.67,8.48,14.72,15,25.32,17.92.19,0,.32.34.48.52-16.89,7.14-59-8.94-73-28.42C91.67-534.35,100.78-529.63,112.17-527.95Z" transform="translate(81.15 757.24)"/><path class="cls-2" d="M25.85-431.68a9.44,9.44,0,0,0-.19-2.56c-1.63-5.55-1.58-5.69,3.84-7.88A16.35,16.35,0,0,1,42-442.36c8.62,3.47,10.4,12.52,3.58,18.85-2.28,2.11-2.09,3.37-.08,5.2a56,56,0,0,1,4.07,4.22c1.55,1.74,2.23,3.68.19,5.47s-3.62.46-5-1.07c-2.24-2.45-4.27-5.1-6.7-7.32a6.42,6.42,0,0,0-1.83-1.11,2.54,2.54,0,0,0-3.31,1.41,5.12,5.12,0,0,0-.48,1.86c0,2.1,0,1.22,0,1.83.08,2.59-.6,4.87-3.57,5-3.35.18-2.55-2.72-2.66-4.57-.2-3.29-.06-6.61-.06-9.92m5.91-9.35c.34,1.68.6,3.2.86,4.63a1.54,1.54,0,0,0,2,1.19,62.94,62.94,0,0,0,6.41-2.22A3.39,3.39,0,0,0,42.82-431c-.11-1.55-.52-4-1.48-4.38-2.33-1-4.52-2.13-7.64-1-.74.26-1.82,2.44-1.68,4.32A.85.85,0,0,0,32.05-431.84Z" transform="translate(81.15 757.24)"/><path class="cls-2" d="M111.25-415a23.33,23.33,0,0,1-.45,3.18,3.86,3.86,0,0,1-2.76,3.07c-2.41.59-3.31-1.53-3.5-3.66-.14-1.58-.05-3.18-.07-4.77,0-.49,0-1,0-1.47-.29-4.45-3.74-2.25-5.61-2.25s-5.55-2.14-5.89,2.37c-.14,1.83,0,3.68-.06,5.51-.09,2.19-.42,4.41-3.29,4.34-2.72-.07-3.2-2.22-3.44-4.4,0-.25,0-.49,0-.74v-11.76c0-4-.19-8.09.11-12.11a6.46,6.46,0,0,1,2.19-4.22c1.93-1.48,4.15-.21,4.35,2.38.23,3.05.18,6.12.12,9.18,0,1.72.61,2.27,2.34,2.4,9.09.64,9.08.69,9.21-8.38a20.35,20.35,0,0,1,.17-2.92,3.39,3.39,0,0,1,3.81-3.18c2.06.15,2.14,1.38,2.79,3.61s.26,4.66.07,7.34" transform="translate(81.15 757.24)"/><path class="cls-2" d="M186.35-425.79c0,4.07-2,7.34-3.71,11a10.83,10.83,0,0,1-10.93,6.55c-4.7-.22-7.58-2.82-9.53-6.86-3.46-7.18-2.3-14.11,1.46-20.66a10.84,10.84,0,0,1,11.41-5.72c5,.68,8.07,3.86,9.77,8.36A16.13,16.13,0,0,1,186.35-425.79Zm-20,1a15.07,15.07,0,0,0,1.26,6.09c.8,1.58,2.34,3.59,3.66,3.87,3.34.7,4.59-.88,5.61-2.34a14.14,14.14,0,0,0,1.52-14.56c-2-4.32-6.68-4.92-9.21-.92C167.6-430.18,166.15-427.19,166.32-424.78Z" transform="translate(81.15 757.24)"/><path class="cls-2" d="M231.66-419.9c-1.06,0-2.13,0-3.19,0-5.76-.21-10-4-10.35-9.4-.39-5.55,3.5-11,8.69-12.06,8.44-1.79,14.22,2.83,14.47,11.48.27,9.64-4,16.65-12.11,21.56-1.88,1.15-4,2.15-5.45-.23s0-3.71,2-5a77.86,77.86,0,0,0,6.45-5.22ZM230-426.1c1.79-.55,4.59-.32,4.82-3.43.26-3.5-2-6-4.88-6-2.71.08-5.57,2.85-5.54,5.34C224.45-428,226.9-426.08,230-426.1Z" transform="translate(81.15 757.24)"/><path class="cls-2" d="M61.09-419.68c.31,3,1.84,5.2,5.08,5.26s5.71-1.35,6.14-4.63c.74-5.57,1-11.2,1.53-16.81.08-1-.22-2.17.24-2.89.7-1.08,1.9-2.52,2.91-2.54s2.91,1.51,2.92,2.39c.14,8.56.52,17.26-3,25.31-1.89,4.26-6,5.56-10.42,5.48s-8.6-1.23-10-5.86a64.75,64.75,0,0,1-2.23-12.89,47.91,47.91,0,0,1,.17-10.64c.19-1.4,1.79-3.5,3-3.69,2.34-.38,3.38,1.71,3.25,3.9-.12,1.93-.62,2.7-.48,4.7" transform="translate(81.15 757.24)"/><path class="cls-2" d="M144.19-408.34h-4.36c-5.07-.05-6-1.07-5.5-6.18a14.22,14.22,0,0,1,6.28-10.71c1.71-1.19,3.46-2.32,5.12-3.57,2.06-1.54,2.74-3.6,1.07-5.7s-3.39-.57-4.78.53c-.9.72-2.05,1.18-2.62,2s-3,1.12-4.16.19c-.86-.7-1.1-3.19-.47-4.16a12.65,12.65,0,0,1,11.1-6c3.89,0,6.24,2.28,7.61,5.84,1.76,4.57.57,8.48-2.72,11.72-1.81,1.77-4.17,3-6.21,4.52a13.79,13.79,0,0,0-2.55,2.58c-.72,1-.62,2.4.55,2.13a37.5,37.5,0,0,0,8.15-1.13c1.79-.57,3.62-1.35,4.39.6a5.73,5.73,0,0,1-.65,4.82C151.74-407.41,147.58-408.5,144.19-408.34Z" transform="translate(81.15 757.24)"/><path class="cls-2" d="M-22.88-420.06a16.16,16.16,0,0,1,.41-8.34c2.6-7.74,9.85-12,17.19-13.07,3.48-.52,6,1.48,7.12,4.58A4.41,4.41,0,0,1,1-432.84c-.76.61-3.34.26-3.95-.54-1.63-2.18-3.11-1.68-5.06-.82-6.85,3-9.78,7.9-8.37,14,.69,3,2.32,5.13,5.34,5.9s4.79-1.07,6.54-3.08c.78-.89,1.72-2,2.74-2.19s2.8.51,3,1.18A5.86,5.86,0,0,1,.88-414c-2.74,4-6.61,6.68-11.69,6.33-5.4-.37-9-3.56-11-8.47A22.91,22.91,0,0,1-22.88-420.06Z" transform="translate(81.15 757.24)"/><path class="cls-2" d="M-46.59-417.76c.3-8.13-.55-12.49-.79-19-.08-2.24.86-3.68,3-3.84,4.87-.37,9.77-.68,14.65-.61a3.52,3.52,0,0,1,3.59,2.45,2.77,2.77,0,0,1-2.93,3.5,31.89,31.89,0,0,1-8.36.6c-2.72-.07-2.42,1.54-2.47,3.34-.06,2,.53,3,2.69,2.74s4.18-.84,6.19-.6a5,5,0,0,1,4.1,2.25c.17,2.29-1.62,3.19-2.84,3.62a26.59,26.59,0,0,1-7.58,1c-1.88.07-2.62.66-2.54,2.58a73.62,73.62,0,0,1,0,7.72c-.13,2.26-1.09,4.32-3.67,4.17-2.4-.14-3-2.24-3-4.34,0-1.59,0-3.18,0-4.78C-46.84-416.88-46.34-417.76-46.59-417.76Z" transform="translate(81.15 757.24)"/><path class="cls-2" d="M205.79-427.32c0,2.45,0,4.89,0,7.34s-.5,5.05,2.63,6.42c.75.32,1.42,2.18,1.17,3.08a3.6,3.6,0,0,1-2.65,1.91,47.14,47.14,0,0,1-8.4.15c-1-.07-2.59-1-2.76-1.76-.23-1.05.32-3,1.12-3.42,2.36-1.23,2.32-3.1,2.29-5.22-.06-3.42,0-6.84,0-10.26,0-1.88.41-3.79-2.09-4.88-.64-.28-.94-3-.36-4.07,1.38-2.43,3.72-4.07,6.73-3.24s2.3,3.37,2.33,5.52C205.81-432.94,205.78-430.13,205.79-427.32Z" transform="translate(81.15 757.24)"/><text x="81.15" y="757.24"/></svg>